<?xml version="1.0" encoding="utf-8"?>
<!-- Generated by IcoMoon.io -->
<!DOCTYPE svg PUBLIC "-//W3C//DTD SVG 1.1//EN" "http://www.w3.org/Graphics/SVG/1.1/DTD/svg11.dtd">
<svg version="1.1" xmlns="http://www.w3.org/2000/svg" xmlns:xlink="http://www.w3.org/1999/xlink" width="16" height="16" viewBox="0 0 16 16">
<g id="icomoon-ignore">
	<line stroke-width="1" x1="" y1="" x2="" y2="" stroke="#449FDB" opacity=""></line>
</g>
	<path d="M12.757 4.708c-0.406 0.405-1.062 0.405-1.468 0s-0.405-1.062 0-1.468l2.935-2.935c0.406-0.405 1.062-0.405 1.468 0 0.405 0.405 0.405 1.062 0 1.468l-2.935 2.935zM7.996 15.991l-3.996-3.996h-2.997c-0.552 0-0.999-0.447-0.999-0.999v-5.994c0-0.552 0.447-0.999 0.999-0.999h2.997l3.996-3.996c0 0 0.999-0.125 0.999 0.999 0 5.976 0 14.966 0 13.985 0 1.124-0.999 0.999-0.999 0.999zM6.997 4.004l-1.998 1.998h-2.997v3.996h2.997l1.998 1.998v-7.992zM11.992 8.999c-0.552 0-0.999-0.447-0.999-0.999s0.447-0.999 0.999-0.999h2.997c0.552 0 0.999 0.447 0.999 0.999s-0.447 0.999-0.999 0.999h-2.997zM12.757 11.292l2.935 2.935c0.405 0.406 0.405 1.063 0 1.468s-1.062 0.405-1.468 0l-2.935-2.935c-0.405-0.406-0.405-1.063 0-1.468s1.062-0.405 1.468 0z" fill="#ffffff"></path>
</svg>
