<?xml version="1.0" encoding="utf-8"?>
<!-- Generated by IcoMoon.io -->
<!DOCTYPE svg PUBLIC "-//W3C//DTD SVG 1.1//EN" "http://www.w3.org/Graphics/SVG/1.1/DTD/svg11.dtd">
<svg version="1.1" xmlns="http://www.w3.org/2000/svg" xmlns:xlink="http://www.w3.org/1999/xlink" width="16" height="16" viewBox="0 0 16 16">
<g id="icomoon-ignore">
	<line stroke-width="1" x1="" y1="" x2="" y2="" stroke="#449FDB" opacity=""></line>
</g>
	<path d="M15.988 9.491l-1.49 1.491-1.491-1.491-1.491 1.491-1.49-1.491 1.49-1.491-1.49-1.491 1.49-1.491 1.491 1.491 1.491-1.491 1.49 1.491-1.49 1.491 1.49 1.491zM8.008 15.996l-3.998-3.998h-2.998c-0.552 0-0.999-0.447-0.999-0.999v-5.997c0-0.552 0.447-0.999 0.999-0.999h2.998l3.998-3.998c0 0 0.999-0.125 0.999 0.999 0 5.423 0 13.304 0 13.993 0 1.124-0.999 0.999-0.999 0.999zM7.009 4.002l-1.999 1.999h-2.998v3.998h2.998l1.999 1.999v-7.996z" fill="#ffffff"></path>
</svg>
