<?xml version="1.0" encoding="utf-8"?>
<!-- Generated by IcoMoon.io -->
<!DOCTYPE svg PUBLIC "-//W3C//DTD SVG 1.1//EN" "http://www.w3.org/Graphics/SVG/1.1/DTD/svg11.dtd">
<svg version="1.1" xmlns="http://www.w3.org/2000/svg" xmlns:xlink="http://www.w3.org/1999/xlink" width="16" height="16" viewBox="0 0 16 16">
<g id="icomoon-ignore">
	<line stroke-width="1" x1="" y1="" x2="" y2="" stroke="#449FDB" opacity=""></line>
</g>
	<path d="M0.538 10.765l0.262-1.12-0.262-1.158c-0.007-0.034-0.073-0.061-0.154-0.061s-0.147 0.026-0.154 0.061l-0.23 1.158 0.231 1.12c0.006 0.035 0.072 0.061 0.154 0.061 0.080 0 0.146-0.026 0.153-0.061zM2.178 11.386l0.222-1.731-0.222-2.678c-0.006-0.069-0.090-0.122-0.19-0.122s-0.185 0.053-0.19 0.122l-0.198 2.678 0.198 1.731c0.005 0.068 0.088 0.121 0.19 0.121s0.184-0.053 0.19-0.121zM3.814 11.358l0.186-1.702-0.186-3.566c-0.005-0.083-0.104-0.15-0.225-0.15s-0.221 0.066-0.225 0.15l-0.165 3.566 0.165 1.703c0.004 0.083 0.103 0.149 0.225 0.149s0.22-0.066 0.225-0.15zM5.448 11.333l0.152-1.676-0.152-3.592c-0.004-0.099-0.116-0.178-0.256-0.178s-0.253 0.078-0.257 0.178l-0.135 3.592 0.136 1.676c0.002 0.098 0.115 0.177 0.256 0.177s0.252-0.077 0.256-0.177zM7.080 11.312l0.12-1.654-0.12-4.118c-0.002-0.114-0.131-0.206-0.286-0.206s-0.283 0.092-0.286 0.206l-0.108 4.117c0 0.002 0.108 1.655 0.108 1.655 0.002 0.112 0.13 0.204 0.286 0.204s0.284-0.090 0.286-0.203zM8.222 11.517c0.005 0 5.679 0.003 5.716 0.003 1.139 0 2.062-0.893 2.062-1.994s-0.922-1.994-2.062-1.994c-0.283 0-0.552 0.055-0.798 0.155-0.164-1.797-1.723-3.206-3.624-3.206-0.465 0-0.918 0.088-1.318 0.238-0.155 0.058-0.198 0.118-0.198 0.234v6.329c0.002 0.122 0.099 0.224 0.222 0.236z" fill="#ffffff"></path>
</svg>
